<svg id="ecNeO8jmP3U1" xmlns="http://www.w3.org/2000/svg" xmlns:xlink="http://www.w3.org/1999/xlink" viewBox="0 0 220 289.97" shape-rendering="geometricPrecision" text-rendering="geometricPrecision"><line x1="33" y1="175.97" x2="5" y2="210.97" transform="translate(8.094737 6)" fill="#fff" stroke="#000" stroke-width="10" stroke-linecap="round" stroke-miterlimit="10"/><line x1="33" y1="175.97" x2="5" y2="210.97" transform="matrix(.914997 0.403461-.403461 0.914997 252.67746-14.230177)" fill="#fff" stroke="#000" stroke-width="10" stroke-linecap="round" stroke-miterlimit="10"/><g transform="translate(8.094737 6)"><rect width="134.06" height="88" rx="25.65" ry="25.65" transform="translate(31.94 154.97)" fill="#3fa9f5"/><path d="M140.35,159.97c11.39,0,20.65,9.26,20.65,20.65v36.7c0,11.39-9.26,20.65-20.65,20.65h-82.76c-11.39,0-20.65-9.26-20.65-20.65v-36.7c0-11.39,9.26-20.65,20.65-20.65h82.76m0-10h-82.76c-16.93,0-30.65,13.72-30.65,30.65v36.7c0,16.93,13.72,30.65,30.65,30.65h82.76c16.93,0,30.65-13.72,30.65-30.65v-36.7c0-16.93-13.72-30.65-30.65-30.65v0Z"/></g><g transform="translate(8.094737 6)"><rect width="171.5" height="106" rx="21.69" ry="21.69" transform="translate(13.28 53.45)" fill="#fcee21"/><path d="M163.09,58.45c9.2,0,16.69,7.49,16.69,16.69v62.63c0,9.2-7.49,16.69-16.69,16.69h-128.13c-9.2,0-16.69-7.49-16.69-16.69v-62.63c0-9.2,7.49-16.69,16.69-16.69h128.13m0-10h-128.13C20.22,48.45,8.27,60.4,8.27,75.14v62.63c0,14.74,11.95,26.69,26.69,26.69h128.13c14.74,0,26.69-11.95,26.69-26.69v-62.63c0-14.74-11.95-26.69-26.69-26.69v0Z"/></g><g transform="translate(8.094737 6)"><rect width="136" height="42.95" rx="15" ry="15" transform="translate(29.53 84.98)"/><path d="M150.53,85.48c8,0,14.5,6.5,14.5,14.5v12.94c0,8-6.5,14.5-14.5,14.5h-106c-8,0-14.5-6.5-14.5-14.5v-12.94c0-8,6.5-14.5,14.5-14.5h106m0-1h-106c-8.56,0-15.5,6.94-15.5,15.5v12.94c0,8.56,6.94,15.5,15.5,15.5h106c8.56,0,15.5-6.94,15.5-15.5v-12.94c0-8.56-6.94-15.5-15.5-15.5v0Z"/></g><g transform="translate(8.094737 6)"><ellipse rx="7" ry="17.5" transform="translate(9.53 105.58)" fill="#ff1d25"/><path d="M9.53,90.6c1.32.58,4.5,5.76,4.5,14.98s-3.18,14.39-4.5,14.98c-1.32-.58-4.5-5.76-4.5-14.98s3.18-14.39,4.5-14.98m0-5.02c-5.25,0-9.5,8.95-9.5,20s4.25,20,9.5,20s9.5-8.95,9.5-20-4.25-20-9.5-20v0Z"/></g><g transform="translate(8.094737 6)"><ellipse rx="7" ry="17.5" transform="translate(188.41 105.58)" fill="#ff1d25"/><path d="M188.41,90.6c1.32.58,4.5,5.76,4.5,14.98s-3.18,14.39-4.5,14.98c-1.32-.58-4.5-5.76-4.5-14.98s3.18-14.39,4.5-14.98m0-5.02c-5.25,0-9.5,8.95-9.5,20s4.25,20,9.5,20s9.5-8.95,9.5-20-4.25-20-9.5-20v0Z"/></g><g transform="translate(8.094737 6)"><path d="M53.14,121.67c-8.4,0-15.23-6.83-15.23-15.22s6.83-15.23,15.23-15.23s15.22,6.83,15.22,15.23-6.83,15.22-15.22,15.22Z" fill="#5f9eff"/><path d="M53.14,91.73c8.12,0,14.72,6.61,14.72,14.72s-6.61,14.72-14.72,14.72-14.72-6.61-14.72-14.72s6.61-14.72,14.72-14.72m0-1c-8.68,0-15.72,7.04-15.72,15.72s7.04,15.72,15.72,15.72s15.72-7.04,15.72-15.72-7.04-15.72-15.72-15.72v0Z"/></g><g transform="translate(8.094737 6)"><path d="M142.3,121.67c-8.4,0-15.22-6.83-15.22-15.22s6.83-15.23,15.22-15.23s15.23,6.83,15.23,15.23-6.83,15.22-15.23,15.22Z" fill="#5f9eff"/><path d="M142.3,91.73c8.12,0,14.72,6.61,14.72,14.72s-6.61,14.72-14.72,14.72-14.72-6.61-14.72-14.72s6.61-14.72,14.72-14.72m0-1c-8.68,0-15.72,7.04-15.72,15.72s7.04,15.72,15.72,15.72s15.72-7.04,15.72-15.72-7.04-15.72-15.72-15.72v0Z"/></g><line x1="99.03" y1="48.45" x2="99.03" y2="19.83" transform="translate(8.094737 6)" fill="#fff" stroke="#000" stroke-width="10" stroke-miterlimit="10"/><circle r="14.47" transform="translate(106.624737 25.47)" fill="#ff1d25" stroke="#000" stroke-width="10" stroke-miterlimit="10"/><circle r="3.5" transform="translate(55.624737 105.47)" fill="#fff" stroke="#fff" stroke-width="4" stroke-miterlimit="10"/><circle r="3.5" transform="translate(143.894737 106.41)" fill="#fff" stroke="#fff" stroke-width="4" stroke-miterlimit="10"/><line x1="49.03" y1="245.97" x2="39" y2="272.97" transform="translate(8.094737 6)" fill="#fff" stroke="#000" stroke-width="10" stroke-linecap="round" stroke-miterlimit="10"/><line x1="148.07" y1="245.97" x2="158" y2="272.97" transform="translate(8.094737 6)" fill="#fff" stroke="#000" stroke-width="10" stroke-linecap="round" stroke-miterlimit="10"/></svg>
